<svg xmlns="http://www.w3.org/2000/svg" xmlns:xlink="http://www.w3.org/1999/xlink" viewBox="0 0 500 500">
  <defs>
    <clipPath id="freepik--clip-path--inject-204">
      <path
        d="M284.21,203.1s1.73,8.51,1.59,9.66-1.59,1.73-1.59,2.6,2.31,3.31,1.59,4.9a2.24,2.24,0,0,1-2.31,1.59c-.58,0-2.16,5.19-3.32,7.21a4.52,4.52,0,0,1-5.48,2.31,4.88,4.88,0,0,1-3-2.74l-4,2.88-9.09-6.63,3.6-4.19S259,215.79,259,212s6.2-11.25,12.12-12.12S284.21,203.1,284.21,203.1Z"
        style="fill:#fff;stroke:#263238;stroke-linecap:round;stroke-linejoin:round"></path>
    </clipPath>
    <clipPath id="freepik--clip-path-2--inject-204">
      <path
        d="M261.83,276.53s11.89,3.12,13.3,5.93c2.8,5.59-16.8,42.57-18.21,47.3a29.91,29.91,0,0,0-1.34,8.37s12.22,7,14.58,8.66,6.86,2.13,5.2,2.84-12.3-.95-16.55-1.18-12.54.23-14.19-2.37,2.83-8.08,2.83-10.45,4.5-19.11,4.5-24.55S253.13,292.87,255,286A15.73,15.73,0,0,1,261.83,276.53Z"
        style="fill:#fff;stroke:#263238;stroke-linecap:round;stroke-linejoin:round"></path>
    </clipPath>
    <clipPath id="freepik--clip-path-3--inject-204">
      <path
        d="M213.63,301.62s-6.15,7.57-7.33,11.35-6.62,22.47-8,25.07-2.36,3.55-2.13,4.26,5.68,1.42,7.33,1.42,2.13-5.68,6.86-13S224,314.39,225.93,309s2.84-8.28,2.84-8.28A16.72,16.72,0,0,1,213.63,301.62Z"
        style="fill:#fff;stroke:#263238;stroke-linecap:round;stroke-linejoin:round"></path>
    </clipPath>
    <clipPath id="freepik--clip-path-4--inject-204">
      <path
        d="M202.52,284.82l5.67,16.56s6.63,4.73,13,5.2S234,302.09,234,302.09l-14.19-14.9S206.07,279.15,202.52,284.82Z"
        style="fill:#263238;stroke:#263238;stroke-linecap:round;stroke-linejoin:round"></path>
    </clipPath>
    <clipPath id="freepik--clip-path-5--inject-204">
      <path
        d="M203.46,258.34s-5.67,7.09-6.15,13.48-.47,11.82,10.41,17.74,23.89,2.12,27.2-4.26,3.78-10.17-2.6-14.9S203.46,258.34,203.46,258.34Z"
        style="fill:#263238;stroke:#263238;stroke-linecap:round;stroke-linejoin:round"></path>
    </clipPath>
    <clipPath id="freepik--clip-path-6--inject-204">
      <path
        d="M258.57,253.13s7.1,21.29,9.93,23.42,35.95,8,35.95,8,3.08,2.84,4.73,3.31a34.25,34.25,0,0,1,5.44,2.84s1.9,5.2,3.08,5.44.24-5.92-.24-10.41-2.13-5.91-5-6.38-9-1.42-9-1.42-10.41-2.13-15.14-6.15-10.17-8-10.17-8-4.49-22-5.91-28.15-3.79-10.88-7.81-12.06-8.27-3.55-19.86-.48-17.27,6.39-22,12.54-19.87,21.52-19.87,23.89,4.5,1.89,9.7,3.78,18.92,9,21.29,8,5.91-5.2,6.62-5.91S256.21,259.75,258.57,253.13Z"
        style="fill:#fff;stroke:#263238;stroke-linecap:round;stroke-linejoin:round"></path>
    </clipPath>
    <clipPath id="freepik--clip-path-7--inject-204">
      <path
        d="M220.49,269.92s17.27-.7,27.91,1.42A67.26,67.26,0,0,1,266.85,278s-8.52,16.32-12.06,21.28-10.88,11.12-10.88,11.12a207.23,207.23,0,0,1-20.58-12.3c-9.93-6.86-7.36-5.42-9.8-10"
        style="fill:#263238;stroke:#263238;stroke-linecap:round;stroke-linejoin:round"></path>
    </clipPath>
  </defs>
  <g id="freepik--background-simple--inject-204">
    <path
      d="M445.7,319.31s20-113.95-34.44-178.6c-48-57.07-124.1-79.26-186.09-32.07-22.09,16.81-38.17,49.46-64,59.55-28.93,11.31-66.13,15.35-93,63.84S51,342.75,86.8,375.88s98.51.81,155-1.62S416.08,459.93,445.7,319.31Z"
      style="fill:#2DA1E4"></path>
    <path
      d="M445.7,319.31s20-113.95-34.44-178.6c-48-57.07-124.1-79.26-186.09-32.07-22.09,16.81-38.17,49.46-64,59.55-28.93,11.31-66.13,15.35-93,63.84S51,342.75,86.8,375.88s98.51.81,155-1.62S416.08,459.93,445.7,319.31Z"
      style="fill:#fff;opacity:0.7000000000000001"></path>
  </g>
  <g id="freepik--Clouds--inject-204">
    <path
      d="M418.47,171.69c.93-.32-2.85-11.32-3.19-12.36-2.33-7.12-8.13-14.11-16.22-14s-17.41,11.41-25.49,6.83c-6.67-3.79-10.26-11.11-17.58-14.07-13.84-5.59-13.84,9.16-24,11.5-7.75,1.79-10.13-4.77-17.29.59s-2.38,7.75-10.13,8.95-8.95-.6-13.72,1.19-13.11,10.73-13.11,10.73-6.56-2.38-12.52,0-8.35,6-8.35,6H425.62S423.83,170.5,418.47,171.69Z"
      style="fill:#2DA1E4"></path>
    <path
      d="M301.88,127.39c.53-.18-1.62-6.45-1.82-7-1.32-4-4.63-8-9.24-7.95s-9.92,6.5-14.52,3.89c-3.8-2.16-5.85-6.33-10-8-7.88-3.18-7.89,5.22-13.66,6.55-4.42,1-5.78-2.71-9.85.34s-1.36,4.42-5.78,5.1-5.09-.34-7.81.68-7.48,6.11-7.48,6.11a11.19,11.19,0,0,0-7.13,0,10.64,10.64,0,0,0-4.76,3.4H306S304.94,126.71,301.88,127.39Z"
      style="fill:#2DA1E4"></path>
    <path
      d="M418.47,171.69c.93-.32-2.85-11.32-3.19-12.36-2.33-7.12-8.13-14.11-16.22-14s-17.41,11.41-25.49,6.83c-6.67-3.79-10.26-11.11-17.58-14.07-13.84-5.59-13.84,9.16-24,11.5-7.75,1.79-10.13-4.77-17.29.59s-2.38,7.75-10.13,8.95-8.95-.6-13.72,1.19-13.11,10.73-13.11,10.73-6.56-2.38-12.52,0-8.35,6-8.35,6H425.62S423.83,170.5,418.47,171.69Z"
      style="fill:#fff;opacity:0.36"></path>
    <path
      d="M301.88,127.39c.53-.18-1.62-6.45-1.82-7-1.32-4-4.63-8-9.24-7.95s-9.92,6.5-14.52,3.89c-3.8-2.16-5.85-6.33-10-8-7.88-3.18-7.89,5.22-13.66,6.55-4.42,1-5.78-2.71-9.85.34s-1.36,4.42-5.78,5.1-5.09-.34-7.81.68-7.48,6.11-7.48,6.11a11.19,11.19,0,0,0-7.13,0,10.64,10.64,0,0,0-4.76,3.4H306S304.94,126.71,301.88,127.39Z"
      style="fill:#fff;opacity:0.36"></path>
  </g>
  <g id="freepik--Waves--inject-204">
    <path
      d="M178.79,188.33c-22.06-2.76-44.95-2.92-65.14-2C97.47,194.81,81.56,207.93,68.21,232,41.34,280.52,51,342.75,86.8,375.88s98.51.81,155-1.62,174.28,85.67,203.9-54.95c0,0,10.78-61.49-5.07-119.76-25.48,4.89-78.19,14-117.41,14C269.61,213.56,239.33,195.9,178.79,188.33Z"
      style="fill:#2DA1E4"></path>
    <path
      d="M178.79,188.33c-22.06-2.76-44.95-2.92-65.14-2C97.47,194.81,81.56,207.93,68.21,232,41.34,280.52,51,342.75,86.8,375.88s98.51.81,155-1.62,174.28,85.67,203.9-54.95c0,0,10.78-61.49-5.07-119.76-25.48,4.89-78.19,14-117.41,14C269.61,213.56,239.33,195.9,178.79,188.33Z"
      style="fill:#fff;opacity:0.36"></path>
    <g style="opacity:0.2">
      <path
        d="M383.77,270.32s.63-4.42,22.7-10.09c14.71-3.78,31.65-8.41,42.07-11.82-.08-1.07-.15-2.15-.24-3.24-13.66,2.15-36.22,6.5-33.63,4.34s21.41-8.85,32.83-12.78a243,243,0,0,0-6.87-37.18c-25.48,4.89-78.19,14-117.41,14-53.61,0-83.89-17.66-144.43-25.23-22.06-2.76-44.95-2.92-65.14-2C97.47,194.81,81.56,207.93,68.21,232c-1.54,2.77-2.93,5.58-4.23,8.43a71.06,71.06,0,0,0,17.68,4.63c29.64,3.15,58.65,0,78.21,0s-8.2,5.68-25.23,11.35,46,3.16,83.25,4.42-47.93,20.81-72.53,22.7-8.83,5.05,11.35,6.31,34.06,3.78,22.71,5.68-25.86,7.57-5,7.57,109.74-4.42,128-3.79-33.42,9.46-20.18,10.09,38.48,1.26,34.69,2.53-38.47,8.19-26.49,6.93,12-1.26,51.09-4.41,44.78-1.89,51.09-3.79-51.72-2.52-27.76-6.93,47.31-9.46,65.6-11.36,0-2.52-5.68-5c-4.4-2,9-2.4,24.34-6,.1-3,.16-6.13.17-9.37C425.58,270.05,383.77,270.32,383.77,270.32Z"></path>
      <path
        d="M268.35,322c16.4,0,19.55-3.16,10.09-3.16s0-1.89,8.83-4.41-30.91.63-39.11,1.26,8.2,2.52,15.77,2.52-22.07,2.52-27.75,5.05,43.52,5,53,5-3.78,1.26-15.14,1.9,26.49,0,37.21-3.79S268.35,322,268.35,322Z"></path>
      <path
        d="M219.15,312.58c-20.18,0-50.45-3.16-39.1.63s34.69,3.78,25.23,4.41-33.43,0-24.6,1.89,25.52,2,25.52,2-41.29,1.14-25.52,1.77,63.7,2.52,49.19,0-2.52-4.42,1.9-5.68S239.33,312.58,219.15,312.58Z"></path>
      <path
        d="M397.64,335.91s-42.89,2.52-33.43,4.42,71.27,3.15,56.14,1.89-1.27-3.79,7.56-3.79-22.7,0-26.48-1.26Z"></path>
      <path
        d="M400.16,321.41c-9.46-1.9-32.16,1.26-32.16,1.26s-52.35,6.93-37.21,6.93S409.62,323.3,400.16,321.41Z"></path>
      <path
        d="M392.6,325.19c-13.88,1.89,47.93-3.15,38.47,1.26s-34.69,5.68-17.66,6.31c7.24.27,18.92-.38,29.33-1.21.3-1.09.59-2.2.88-3.32-6.36-.39-10.52-.84-6.24-1.15a65.15,65.15,0,0,0,6.77-1c.49-2,1-4.1,1.42-6.23-5.2-.18-8.83-.38-8.83-.38S406.47,323.3,392.6,325.19Z"></path>
    </g>
    <path
      d="M323.22,213.56c-53.61,0-83.89-17.66-144.43-25.23-22.06-2.76-44.95-2.92-65.14-2a104.53,104.53,0,0,0-18.15,12c4.24.59,12.38,1.69,24.57,3.18,18.84,2.3,46.87-.92,37.68-.92s-20.68-6,5.51-3.68,55.14,8.73,52.84,11.49,1.38.46,17.92,4.14,23.43,6.89,37.21,10.56,15.62,5.52,25.27,3.22,7.35-2.3,18.38-.92,11,1.38,20.68,1.38h23.89c9.19,0,19.29.92,25.73,0s-13.79-1.38,9.64-4.6,24.36-4.13,28-4.13,3.22-.92,14.7-6.43c2.49-1.2,4.16-2.09,5.36-2.82q-1-4.62-2.28-9.23C415.15,204.44,362.44,213.56,323.22,213.56Z"
      style="opacity:0.25"></path>
    <path
      d="M441.21,201.78c-.21-.81-.42-1.61-.64-2.41a72.71,72.71,0,0,0-15.75,2.23,134.86,134.86,0,0,1-23.42,2.65c-5.29,0-8.69,3-18.51.75s-6.8-.75-13.22.76-9.44,4.91-17.75,2.26-19.64-3-35.13,1.51-12.94,1.15-21.52.76c-8.78-.4-15.11-8.69-20.4-7.93s-5.29-.38-12.09-3.78-14.73-4.53-18.5-3.78-7.18-1.13-14-6-14-2.26-22.66-2.26-9.44,0-17.37-5.29-17.76,1.13-20.4,1.13S157,177.81,151,176.68s-11.71,4.15-20,5.28c-3.82.52-5.4.17-6.66-.63a121.63,121.63,0,0,0-19.38,10.08h9c5.29,0,9.07-1.89,14.73-2.65s7.93,1.13,13.6,3.4,5.66,0,12.84.76,7.55,1.51,12.46,1.13,11.34-1.89,15.49-1.89,13.6,5.67,21.53,5.67,20-.76,29.46,1.88,9.44,12.85,24.93,15.87,22-1,26.81,0,7.56,5.66,14.36,5.29,14-2.27,24.55-1.14,13.22,3.4,21.15,1.14,10.2-1.52,19.26-.76,17.37-.76,26.06-3.4,12.09-1.51,17-1.51,13.22-3.78,21.9-8.31C434.07,204.82,438.34,203.07,441.21,201.78Z"
      style="fill:#fff"></path>
  </g>
  <g id="freepik--Character--inject-204">
    <path
      d="M188.56,331.65c-8-9.46-6.15-15.61-17-17.5s-20.81-.47-24.59-9.46,2.36-13.72-10.88-19.87-13.25.48-16.56-11.82-.47-16.08-13.72-18S84,247.46,81.66,242.73s-4.73-9.46-13.72-9.46h-.39A126.21,126.21,0,0,0,55.62,319c12.08-1.26,28.7-2,35,2.3,10.4,7.09,15.13,20.34,29.8,21.76s22.23-5.68,33.58,1.42,16.56,9.93,27.44,9,15.61-2.36,22.7-.94a49,49,0,0,0,14.19.47l-9.46-8S196.6,341.12,188.56,331.65Z"
      style="fill:#fff;opacity:0.63"></path>
    <path
      d="M284.21,203.1s1.73,8.51,1.59,9.66-1.59,1.73-1.59,2.6,2.31,3.31,1.59,4.9a2.24,2.24,0,0,1-2.31,1.59c-.58,0-2.16,5.19-3.32,7.21a4.52,4.52,0,0,1-5.48,2.31,4.88,4.88,0,0,1-3-2.74l-4,2.88-9.09-6.63,3.6-4.19S259,215.79,259,212s6.2-11.25,12.12-12.12S284.21,203.1,284.21,203.1Z"
      style="fill:#fff"></path>
    <g style="clip-path:url(#freepik--clip-path--inject-204)">
      <path
        d="M271.09,199.92c-5.92.87-12.12,8.37-12.12,12.12s3.17,8.65,3.17,8.65l-3.6,4.19,9.09,6.63,4-2.88a4.88,4.88,0,0,0,3,2.74,4.42,4.42,0,0,0,5-1.58c-1.47-1.14-4.82-1.79-5.83-3.81-1.48-3,.89-6.82,3.27-11a10.11,10.11,0,0,0,1.18-7.71l6-3.77-.09-.42S277,199.06,271.09,199.92Z"
        style="fill:#2DA1E4"></path>
      <path
        d="M271.09,199.92c-5.92.87-12.12,8.37-12.12,12.12s3.17,8.65,3.17,8.65l-3.6,4.19,9.09,6.63,4-2.88a4.88,4.88,0,0,0,3,2.74,4.42,4.42,0,0,0,5-1.58c-1.47-1.14-4.82-1.79-5.83-3.81-1.48-3,.89-6.82,3.27-11a10.11,10.11,0,0,0,1.18-7.71l6-3.77-.09-.42S277,199.06,271.09,199.92Z"
        style="fill:#fff;opacity:0.5"></path>
    </g>
    <path
      d="M284.21,203.1s1.73,8.51,1.59,9.66-1.59,1.73-1.59,2.6,2.31,3.31,1.59,4.9a2.24,2.24,0,0,1-2.31,1.59c-.58,0-2.16,5.19-3.32,7.21a4.52,4.52,0,0,1-5.48,2.31,4.88,4.88,0,0,1-3-2.74l-4,2.88-9.09-6.63,3.6-4.19S259,215.79,259,212s6.2-11.25,12.12-12.12S284.21,203.1,284.21,203.1Z"
      style="fill:none;stroke:#263238;stroke-linecap:round;stroke-linejoin:round"></path>
    <path
      d="M261.83,276.53s11.89,3.12,13.3,5.93c2.8,5.59-16.8,42.57-18.21,47.3a29.91,29.91,0,0,0-1.34,8.37s12.22,7,14.58,8.66,6.86,2.13,5.2,2.84-12.3-.95-16.55-1.18-12.54.23-14.19-2.37,2.83-8.08,2.83-10.45,4.5-19.11,4.5-24.55S253.13,292.87,255,286A15.73,15.73,0,0,1,261.83,276.53Z"
      style="fill:#fff"></path>
    <g style="clip-path:url(#freepik--clip-path-2--inject-204)">
      <path
        d="M255.75,345c-7.41-4.75-7.41-2.37-3.85-8.9s16.61-42.43,16.91-47.18-10.09,0-10.09,0l-4-1.59A130,130,0,0,0,252,311.08c0,5.44-4.5,22.19-4.5,24.55s-4.49,7.85-2.83,10.45,9.93,2.13,14.19,2.37c.95.05,2.22.18,3.64.33A74.33,74.33,0,0,1,255.75,345Z"
        style="fill:#2DA1E4"></path>
      <path
        d="M255.75,345c-7.41-4.75-7.41-2.37-3.85-8.9s16.61-42.43,16.91-47.18-10.09,0-10.09,0l-4-1.59A130,130,0,0,0,252,311.08c0,5.44-4.5,22.19-4.5,24.55s-4.49,7.85-2.83,10.45,9.93,2.13,14.19,2.37c.95.05,2.22.18,3.64.33A74.33,74.33,0,0,1,255.75,345Z"
        style="fill:#fff;opacity:0.5"></path>
      <line x1="257.24" y1="293.04" x2="268.81" y2="288.89"
            style="fill:none;stroke:#263238;stroke-linecap:round;stroke-linejoin:round"></line>
    </g>
    <path
      d="M261.83,276.53s11.89,3.12,13.3,5.93c2.8,5.59-16.8,42.57-18.21,47.3a29.91,29.91,0,0,0-1.34,8.37s12.22,7,14.58,8.66,6.86,2.13,5.2,2.84-12.3-.95-16.55-1.18-12.54.23-14.19-2.37,2.83-8.08,2.83-10.45,4.5-19.11,4.5-24.55S253.13,292.87,255,286A15.73,15.73,0,0,1,261.83,276.53Z"
      style="fill:none;stroke:#263238;stroke-linecap:round;stroke-linejoin:round"></path>
    <path
      d="M213.63,301.62s-6.15,7.57-7.33,11.35-6.62,22.47-8,25.07-2.36,3.55-2.13,4.26,5.68,1.42,7.33,1.42,2.13-5.68,6.86-13S224,314.39,225.93,309s2.84-8.28,2.84-8.28A16.72,16.72,0,0,1,213.63,301.62Z"
      style="fill:#fff"></path>
    <g style="clip-path:url(#freepik--clip-path-3--inject-204)">
      <path
        d="M224.6,304a114.83,114.83,0,0,0-12.47,19.29,185.89,185.89,0,0,0-8.67,20.41l-7.94-.23s8.9-14.84,10.68-22,8.31-16.92,11.28-19.59"
        style="fill:#2DA1E4"></path>
      <path
        d="M224.6,304a114.83,114.83,0,0,0-12.47,19.29,185.89,185.89,0,0,0-8.67,20.41l-7.94-.23s8.9-14.84,10.68-22,8.31-16.92,11.28-19.59"
        style="fill:#fff;opacity:0.5"></path>
    </g>
    <path
      d="M213.63,301.62s-6.15,7.57-7.33,11.35-6.62,22.47-8,25.07-2.36,3.55-2.13,4.26,5.68,1.42,7.33,1.42,2.13-5.68,6.86-13S224,314.39,225.93,309s2.84-8.28,2.84-8.28A16.72,16.72,0,0,1,213.63,301.62Z"
      style="fill:none;stroke:#263238;stroke-linecap:round;stroke-linejoin:round"></path>
    <path d="M202.52,284.82l5.67,16.56s6.63,4.73,13,5.2S234,302.09,234,302.09l-14.19-14.9S206.07,279.15,202.52,284.82Z"
          style="fill:#263238"></path>
    <g style="clip-path:url(#freepik--clip-path-4--inject-204)">
      <path
        d="M231.24,299.22c-3.45,2.29-8.17,4.58-13.13,4.42a19.44,19.44,0,0,1-10.28-3.33l.36,1.07s6.63,4.73,13,5.2S234,302.09,234,302.09Z"
        style="fill:#fff;opacity:0.81"></path>
    </g>
    <path d="M202.52,284.82l5.67,16.56s6.63,4.73,13,5.2S234,302.09,234,302.09l-14.19-14.9S206.07,279.15,202.52,284.82Z"
          style="fill:none;stroke:#263238;stroke-linecap:round;stroke-linejoin:round"></path>
    <path
      d="M203.46,258.34s-5.67,7.09-6.15,13.48-.47,11.82,10.41,17.74,23.89,2.12,27.2-4.26,3.78-10.17-2.6-14.9S203.46,258.34,203.46,258.34Z"
      style="fill:#263238"></path>
    <g style="clip-path:url(#freepik--clip-path-5--inject-204)">
      <path
        d="M199.79,269.13c-4.32,4.52-.33,12.37,2.73,17a30.67,30.67,0,0,0,3.48,2.43c-2.95-6.82-5.39-13-3.77-11.19s4.24,7.37,6.53,12.71a24.37,24.37,0,0,0,5.68,1.91C210.65,281.28,204.42,264.28,199.79,269.13Z"
        style="fill:#fff;opacity:0.49"></path>
    </g>
    <path
      d="M203.46,258.34s-5.67,7.09-6.15,13.48-.47,11.82,10.41,17.74,23.89,2.12,27.2-4.26,3.78-10.17-2.6-14.9S203.46,258.34,203.46,258.34Z"
      style="fill:none;stroke:#263238;stroke-linecap:round;stroke-linejoin:round"></path>
    <path
      d="M258.57,253.13s7.1,21.29,9.93,23.42,35.95,8,35.95,8,3.08,2.84,4.73,3.31a34.25,34.25,0,0,1,5.44,2.84s1.9,5.2,3.08,5.44.24-5.92-.24-10.41-2.13-5.91-5-6.38-9-1.42-9-1.42-10.41-2.13-15.14-6.15-10.17-8-10.17-8-4.49-22-5.91-28.15-3.79-10.88-7.81-12.06-8.27-3.55-19.86-.48-17.27,6.39-22,12.54-19.87,21.52-19.87,23.89,4.5,1.89,9.7,3.78,18.92,9,21.29,8,5.91-5.2,6.62-5.91S256.21,259.75,258.57,253.13Z"
      style="fill:#fff"></path>
    <g style="clip-path:url(#freepik--clip-path-6--inject-204)">
      <path
        d="M259.43,245.7c1.54,2.46,10.15,24,10.77,25.23s4.61,2.46,8,4,13.85,6.16,20.62,8a69.27,69.27,0,0,0,9.85,2.16l-.93-4s-.32-1.08-.79-2.59l-3.44-.53s-10.41-2.13-15.14-6.15-10.17-8-10.17-8-5.23-7.31-6.46-10.7-7.7-13.84-4.93-12,7.08,5.54,5.23,2.16-5.53-15.7-10.46-16.31c0,0-4.61-4.31-13.23-1.54S228,235.54,225.88,237.08s4,7.08,2.16,8.31-5.54,0-6.77.62-3.39,2.46-3.39,3.38-.92-.92-3.69,0-12.93,8.62-9.85,11.39a10.56,10.56,0,0,0,1,.72,60.26,60.26,0,0,1,7.13,1.8c5.2,1.89,18.92,9,21.29,8a6.74,6.74,0,0,0,1.42-.83c1.14-3.33,2.51-7.66,2.73-8.5.3-1.23,13.23-4,9.23-4.93s-17.85-5.84-13.23-5.84,18.15,1.54,16.61.92-4.31-4.92-4.31-4.92l5.24,1.23s-5.54-8.93-4.62-8.31,11.76,13,11.76,13S257.89,243.24,259.43,245.7Z"
        style="opacity:0.19"></path>
      <polyline points="254.36 242.19 258.57 253.13 249.11 242.02"
                style="fill:none;stroke:#263238;stroke-linecap:round;stroke-linejoin:round"></polyline>
      <line x1="252.66" y1="237.76" x2="253.57" y2="240.14"
            style="fill:none;stroke:#263238;stroke-linecap:round;stroke-linejoin:round"></line>
    </g>
    <path
      d="M258.57,253.13s7.1,21.29,9.93,23.42,35.95,8,35.95,8,3.08,2.84,4.73,3.31a34.25,34.25,0,0,1,5.44,2.84s1.9,5.2,3.08,5.44.24-5.92-.24-10.41-2.13-5.91-5-6.38-9-1.42-9-1.42-10.41-2.13-15.14-6.15-10.17-8-10.17-8-4.49-22-5.91-28.15-3.79-10.88-7.81-12.06-8.27-3.55-19.86-.48-17.27,6.39-22,12.54-19.87,21.52-19.87,23.89,4.5,1.89,9.7,3.78,18.92,9,21.29,8,5.91-5.2,6.62-5.91S256.21,259.75,258.57,253.13Z"
      style="fill:none;stroke:#263238;stroke-linecap:round;stroke-linejoin:round"></path>
    <path
      d="M317.7,296.18c1.18.23.24-5.92-.24-10.41s-2.13-5.91-5-6.38c-1.48-.25-3.86-.63-5.8-.93.09,1.8-.05,5.11-2.25,6.13,0,0,3.08,2.84,4.73,3.31a34.25,34.25,0,0,1,5.44,2.84S316.52,295.94,317.7,296.18Z"
      style="fill:#fff;stroke:#263238;stroke-linecap:round;stroke-linejoin:round"></path>
    <path d="M315.43,287.41a13,13,0,0,1,2.67,4.75"
          style="fill:none;stroke:#263238;stroke-linecap:round;stroke-linejoin:round"></path>
    <path d="M315.24,284.39a4.67,4.67,0,0,1,2.18,3"
          style="fill:none;stroke:#263238;stroke-linecap:round;stroke-linejoin:round"></path>
    <path d="M285.06,212.92a4.32,4.32,0,0,0-3.07-1.41"
          style="fill:none;stroke:#263238;stroke-linecap:round;stroke-linejoin:round"></path>
    <line x1="284.21" y1="215.36" x2="281.86" y2="214.62"
          style="fill:none;stroke:#263238;stroke-linecap:round;stroke-linejoin:round"></line>
    <path
      d="M220.49,269.92s17.27-.7,27.91,1.42A67.26,67.26,0,0,1,266.85,278s-8.52,16.32-12.06,21.28-10.88,11.12-10.88,11.12a207.23,207.23,0,0,1-20.58-12.3c-9.93-6.86-7.36-5.42-9.8-10"
      style="fill:#263238"></path>
    <g style="clip-path:url(#freepik--clip-path-7--inject-204)">
      <path
        d="M262.74,275.94a50.56,50.56,0,0,1-2.18,4.62c-5.89-1.07-38.12-6.59-37.56,2,.49,7.59,15.89,16.35,22,19.53-2.31,2.45-4.35,4.36-5.85,5.69,2.9,1.62,4.78,2.58,4.78,2.58s7.33-6.15,10.88-11.12S266.85,278,266.85,278,265.34,277.1,262.74,275.94Zm-13.19,21c-4.94-1.71-17.87-6.65-14.64-10.37,3.64-4.21,19.12.08,21.63.81-.28.44-.56.87-.87,1.33A99,99,0,0,1,249.55,296.91Z"
        style="fill:#fff;opacity:0.49"></path>
    </g>
    <path
      d="M220.49,269.92s17.27-.7,27.91,1.42A67.26,67.26,0,0,1,266.85,278s-8.52,16.32-12.06,21.28-10.88,11.12-10.88,11.12a207.23,207.23,0,0,1-20.58-12.3c-9.93-6.86-7.36-5.42-9.8-10"
      style="fill:none;stroke:#263238;stroke-linecap:round;stroke-linejoin:round"></path>
    <path d="M200.26,335.3s-2.13,2.13-10.85-1.35-6.19-10.65-17.23-9.68-7.55,12.58.78,15.1"
          style="fill:#fff;stroke:#263238;stroke-linecap:round;stroke-linejoin:round"></path>
    <path
      d="M285.85,359.57s-27.56-5.42-67.31-8.13C182.81,349,166.8,353.87,184,357.5c-6.1.46-25.82-1.18-49.12-8.43-14.69-4.57-48.66-10.15-74-12.59a107.79,107.79,0,0,0,15.86,28.34c6.77-.42,10.07-2.7,16.67-3.14,7.88-.52,11,4.21,20.49,4.73s17.34-.52,25.22-.52,11,2.62,24.17,2.62,14.19-3.15,18.39-3.15,14.71,2.63,22.59,0l11-3.67A555.61,555.61,0,0,1,280,373.57c41.56,9.94,68.21,11.29,79.5,10.84S285.85,359.57,285.85,359.57Z"
      style="opacity:0.2"></path>
    <path
      d="M167.51,338s97,11.35,134.58,12.77,68.59-5.44,67.88-2.36S353.18,361,333.55,362.4s-39.5,1.18-74.74-.47-81.66-8.44-89.88-9.46c-11.35-1.42-29.33-2.6-39-8S124.7,333.31,167.51,338Z"
      style="fill:#2DA1E4;stroke:#263238;stroke-linecap:round;stroke-linejoin:round"></path>
    <path
      d="M370,348.45c.27-1.16-4-.91-11.32-.23-4.64,1.25-10.18,2.94-16.59,5-14.09,4.43-27.94,7.94-37.3,10.15,10.63,0,19.74-.27,28.79-.93C353.18,361,369.26,351.52,370,348.45Z"
      style="fill:#263238;stroke:#263238;stroke-linecap:round;stroke-linejoin:round"></path>
    <path d="M199.1,336.66s4.25-.58,7.35,1.74l1.16-2.71s-2.9-3.49-7.93-1.36Z"
          style="fill:#263238;stroke:#263238;stroke-miterlimit:10"></path>
    <path
      d="M269.36,215.79s-.44-3.32-2.46-3.61-3.89,4.19-3.31,5.77,2.74,2,2.74,2-2.74,2.17-3.32,2.45-2.6-1.29-4.76-5-3.6-12.84-1.87-17.74,9.37-4.91,11.39-5,8.65.57,6.49-.43-3.32-3.9.29-4.48,6.49,2.46,9.08,4.33.15-.29,1.88-.43,4.18.72,4.33,5.77-4.33,5.19-7.36,4.76-8.51-.29-7.64,1.15,2.59,4,.57,5.19-4.32.29-4.18,1.88S271.38,216.22,269.36,215.79Z"
      style="fill:#263238;stroke:#263238;stroke-linecap:round;stroke-linejoin:round"></path>
    <path d="M259.09,206.26a17.26,17.26,0,0,1-3.09.54"
          style="fill:none;stroke:#fff;stroke-linecap:round;stroke-linejoin:round;stroke-width:0.5px"></path>
    <path d="M284.58,196.08s3-.55,2.48,2.2-4.4,2.2-10.72,3-9.07,2.75-14,4.13"
          style="fill:none;stroke:#fff;stroke-linecap:round;stroke-linejoin:round;stroke-width:0.5px"></path>
    <path d="M269.72,208.09c3.32-1,2.5-.19,2.5-.19"
          style="fill:none;stroke:#fff;stroke-linecap:round;stroke-linejoin:round;stroke-width:0.5px"></path>
    <path d="M256.55,211.47a69.56,69.56,0,0,0,9.11-2.05"
          style="fill:none;stroke:#fff;stroke-linecap:round;stroke-linejoin:round;stroke-width:0.5px"></path>
    <path
      d="M211.27,353.89c-6.15-6.15-5.68-9.94-15.14-8.52s-13.24,2.37-14.19-5.2-8.51-12.3-16.56-11.83-13.24-.47-18.92-9.93-14.66-9.46-23.17-6.15-16.09-.47-22.71-5.68-11.83-5.2-17.5-1.41-7.57,1.89-16.56-3.32S58,296.19,53,297.56c.9,22.36,7.63,43.93,19.42,61.4a4.41,4.41,0,0,1,1.72.6c4.26,2.84,10.41,6.15,16.56,3.79s8.51-10.41,18.44-2.84,22.24,6.15,31.22,2.36,13.72-2.36,22.24,1.42,14.66,4.26,21.28.95,10.88.95,18,.95,7.57-1.9,11.82-3.32a31.59,31.59,0,0,0,7.57-3.78S217.42,360,211.27,353.89Z"
      style="fill:#fff"></path>
  </g>
</svg>
